<?xml version="1.0" encoding="utf-8"?>
<!-- Generator: Adobe Illustrator 20.1.0, SVG Export Plug-In . SVG Version: 6.00 Build 0)  -->
<svg version="1.1" id="Слой_1" xmlns="http://www.w3.org/2000/svg" xmlns:xlink="http://www.w3.org/1999/xlink" x="0px" y="0px"
	 viewBox="0 0 841.9 297.6" style="enable-background:new 0 0 841.9 297.6;" xml:space="preserve">
<style type="text/css">
	.st0{fill:#999694;}
	.st1{fill:#494F4B;}
	.st2{fill:none;stroke:#00C901;stroke-width:1.64;stroke-linecap:round;}
	.st3{fill:#00C901;stroke:#00C901;stroke-width:1.64;}
	.st4{fill:#246233;stroke:#246233;stroke-width:1.64;}
</style>
<g id="Слой_x0020_1">
	<g id="_712782823008">
		<path class="st0" d="M231.5,91.6c0,2.7-0.9,4-2.5,4c-0.8,0-1.4-0.7-1.8-2.2c-0.5-2.8-1.2-5-2-6.5c-2.8-5-8.2-9-16-12
			c-6.7-2.5-13.4-3.8-20.3-3.8c-10.7,0-23,1.5-36.8,4.5c-12.5,17.9-23.4,36.2-32.5,55.1c-12.2,24.9-18.3,45.1-18.3,60.6
			c0,6.5,1.1,9.7,3.3,9.7c1.5,0,3.6-0.9,6.3-2.9c2.7-1.9,4.2-2.9,4.5-2.9c1.5,0,2.3,0.7,2.3,2.2c0,1.8-1.7,3.7-5.1,5.7
			c-3.4,1.9-6.2,2.9-8.4,2.9c-8.2,0-12.3-5.2-12.3-15.5c0-12.5,5.8-31.5,17.3-57.1c8.2-18.5,17.5-36.6,28-54.1
			c-12.5,3.5-25.1,7.1-37.5,10.8c-15,3.8-27.6,5.7-37.8,5.7C46.6,95.9,39,92,39,84.1c0-2.3,0.8-4.8,2.5-7.5
			c4.7-7.2,13.3-12.8,25.8-16.8c10.2-3.2,20.6-4.8,31.3-4.8c10,0,17.2,0.7,21.5,2c2.2,0.7,3.3,1.8,3.3,3.3c0,1.3-0.7,2-2,2h-0.7
			c-13.7-1.4-20.8-2-21.3-2c-8.7,0-17.4,1.2-26.3,3.5c-11.2,2.8-18.9,6.8-23,12c-1.7,2-2.5,3.7-2.5,5c0,4.2,5.1,6.3,15.3,6.3
			c9.8,0,23.2-2.2,40.1-6.5c13.5-3.7,27-7.3,40.3-11c1-1.7,2.6-4,4.7-7c2.2-2.5,6.2-3.8,12-3.8c2.2,0,3.3,0.4,3.3,1.2
			c0,0.3-1.4,2.4-4.3,6.3c10.2-1.8,19.7-2.8,28.6-2.8c9.2,0,18.4,2.4,27.8,7.3C226.1,76.5,231.5,83.5,231.5,91.6z M190.5,190.8
			c0,4-2.1,6-6.3,6c-4.5,0-6.8-2-6.8-6c0-4,2.2-6,6.8-6C188.4,184.8,190.5,186.8,190.5,190.8z"/>
		<path class="st1" d="M344.7,92.6c0,2.7-0.9,4-2.5,4c-0.8,0-1.4-0.7-1.8-2.3c-0.5-2.8-1.2-5-2-6.5c-2.8-5-8.2-9-16-12
			c-6.7-2.5-13.4-3.8-20.3-3.8c-10.7,0-23,1.5-36.8,4.5c-12.5,17.9-23.4,36.2-32.5,55.1c-12.2,24.9-18.3,45.1-18.3,60.6
			c0,6.5,1.1,9.8,3.3,9.8c1.5,0,3.6-1,6.3-2.9c2.7-1.9,4.2-2.9,4.5-2.9c1.5,0,2.3,0.8,2.3,2.3c0,1.8-1.7,3.7-5.1,5.6
			c-3.4,1.9-6.2,2.9-8.4,2.9c-8.2,0-12.2-5.2-12.2-15.5c0-12.5,5.7-31.5,17.3-57.1c8.2-18.5,17.5-36.6,28-54.1
			c-12.5,3.5-25,7.1-37.5,10.8c-15,3.8-27.6,5.8-37.8,5.8c-15.2,0-22.8-3.9-22.8-11.8c0-2.3,0.8-4.9,2.5-7.5
			c4.7-7.2,13.3-12.7,25.8-16.8c10.2-3.2,20.6-4.7,31.3-4.7c10,0,17.2,0.7,21.5,2c2.2,0.7,3.3,1.7,3.3,3.3c0,1.3-0.7,2-2,2h-0.7
			c-13.7-1.3-20.8-2-21.3-2c-8.7,0-17.4,1.2-26.3,3.5c-11.2,2.8-18.9,6.8-23,12c-1.7,2-2.5,3.7-2.5,5c0,4.2,5.1,6.2,15.3,6.2
			c9.8,0,23.2-2.2,40.1-6.5c13.5-3.7,27-7.3,40.3-11c1-1.7,2.6-4,4.7-7c2.2-2.5,6.2-3.8,12-3.8c2.2,0,3.3,0.4,3.3,1.2
			c0,0.4-1.4,2.4-4.3,6.3c10.2-1.8,19.7-2.8,28.6-2.8c9.2,0,18.4,2.4,27.8,7.3C339.2,77.5,344.7,84.4,344.7,92.6z M329.6,199.5
			c0,1-0.2,1.5-0.7,1.5c-0.2,0-0.9-0.4-2.3-1.3c-1.3-0.8-3.8-1.2-7.3-1.2c-1.7,0-3.3,0.1-4.7,0.2c-6.3,25-14.3,44.5-23.8,58.3
			c-18,26.4-37.3,39.6-57.8,39.6c-8,0-14.7-2.3-20.2-7c-5.4-4.7-8.1-10.9-8.1-18.8c0-17.9,12.8-35,38.3-51.3
			c21.4-13.8,42.1-22.3,62.3-25.5c2.3-10.3,5-25.7,8-46.1c-2,4.8-5.6,11.2-10.8,19.1c-5.2,7.9-9.6,13.8-13.3,17.7
			c-4.3,4.5-8.4,6.8-12.2,6.8c-5.4,0-8-4.7-8-14c0-5.4,1.7-11.8,5-19.3c3.8-8.7,8.1-13,12.8-13c2.3,0,3.5,0.7,3.5,2
			c0,0.2-2.1,4-6.3,11.4s-6.3,13.1-6.3,17.1c0,5.4,1.5,8,4.5,8c5.2,0,16.4-16.8,33.8-50.3c0.3-2.5,2.4-3.8,6.3-3.8
			c3,0,4.5,0.7,4.5,2c0,2.2-1.1,9.3-3.2,21.3c-2.5,14.2-5.3,27.8-8.3,40.8h1C325.2,193.4,329.6,195.3,329.6,199.5z M305.1,198.5
			c-11,1.8-24.1,6.6-39.3,14.3c-15.2,7.7-26.8,15.4-34.8,23c-12.7,12-19,23.9-19,35.8c0,6.5,2,11.7,6.1,15.6
			c4.1,3.9,9.5,5.9,16.1,5.9c10.2,0,20.3-4.3,30.3-13c8-6.8,15.1-15.6,21.3-26.3C294.7,238.8,301.1,220.4,305.1,198.5z M419.5,165.7
			c0,0.9-0.5,2-1.5,3.6c-7.3,11.9-14.3,19.6-20.8,23c-3,1.5-6,2.3-9,2.3c-10.2,0-15.3-7.2-15.3-21.7c0-2.4,0.2-4.9,0.5-7.6
			c-11.2,19.9-21.1,29.8-29.8,29.8c-5.2,0-7.8-2.8-7.8-8.5c0-8.7,4.2-19.1,12.5-31.4c8.3-12.3,16.4-19.8,24.3-22.4
			c2.8-1.2,5.6-1.8,8.2-1.8c6,0,10.3,2.1,13,6.3c0.5,0.8,0.7,1.4,0.7,1.7c0,0.2-0.6,0.4-1.7,0.8s-2,0.9-2.5,1.7
			c-4,6.5-6,16.3-6,29.3c0,12,2.6,18,7.8,18c3.7,0,8.9-4.1,15.6-12.1s10.4-12.1,10.9-12.1C419.3,164.5,419.5,164.9,419.5,165.7z
			 M382.7,139.4c-0.7-0.2-1.4-0.3-2.3-0.3c-6.7,0-13.6,4.3-20.8,12.8c-10.2,12.4-15.3,22.5-15.3,30.3c0,3.5,1.2,5.3,3.5,5.3
			c3.7,0,8.4-3.8,14.3-11.5C370.3,165.6,377.2,153.5,382.7,139.4z M502.4,164c0,1.2-0.5,2.6-1.5,4.2c-4.4,7.2-11.5,14.3-21.5,21.5
			c-10.7,8-19.7,12-27,12c-1.5,0-3.8-0.1-6.8-0.2c-2.8,0-5,0-6.5,0c-0.7,0-3.2-0.6-7.5-1.8c-5.2,13.4-12.2,27.4-21,42.1
			c-12.5,20.4-22.7,30.5-30.5,30.5c-4.2,0-6.3-3.1-6.3-9.3c0-8.2,7.5-23.4,22.5-45.5c10.7-14.7,21.4-29.5,32.3-44.3v-1.5
			c0-6-0.1-11.3-0.2-15.8c-6.3,10.3-10.3,15.5-12,15.5c-1,0-1.5-0.6-1.5-1.8c0-0.7,0.2-1.3,0.8-2c7.3-10.3,11-19.6,11-27.8
			c0-1.7-0.5-3.1-1.4-4.1c-0.9-1.1-1.4-1.6-1.4-1.6c0-1.3,2.6-2,7.8-2c5.7,0,8.5,5.7,8.5,17c0,1.7-0.1,4.1-0.4,7.4s-0.4,5.6-0.4,7.1
			c4.7-8.5,9.8-16.4,15.5-23.5c8.7-10.7,15.9-16,21.8-16c5.3,0,8,3.9,8,11.8c0,9.8-3.5,21.3-10.4,34.3c-6.9,13-14.5,22.1-22.7,27.3
			c14.5-0.3,30.6-11.6,48.3-33.8c0.7-0.9,1.2-1.3,1.5-1.3C502,162.5,502.4,162.9,502.4,164z M473.6,141.2c0-5.2-1.4-7.8-4.3-7.8
			c-0.8,0-1.7,0.2-2.5,0.5c-6,2.7-12.4,10.4-19,23.3c-5,9.5-9,19.3-12,29.3c1.7,2.5,4.6,5.7,8.7,9.5c7.3-3.2,14.1-11.1,20.3-23.8
			C470.7,160.2,473.6,149.9,473.6,141.2z M426.3,186.7c-0.2-0.2-0.3-0.2-0.5-0.2c-0.7,0-1.6,0.9-2.8,2.5c-4,6-10,14.9-18,26.5
			c-3.5,5-7.9,12.6-13.3,22.8c-6.2,11.8-9.3,19.5-9.3,23c0,1.5,0.5,2.3,1.5,2.3c7.3,0,17.4-12,30.3-36c3.3-6.3,6.9-17.3,10.8-32.8
			c-0.2-0.8-0.2-1.7-0.2-2.5C424.8,190.3,425.3,188.4,426.3,186.7z M603.5,57.1c0,12-10.5,28.8-31.5,50.3
			c-13.5,13.7-29.5,27.5-48.1,41.5c-3.3,7-6.1,13.8-8.3,20.3c8.4-8.3,16.6-16.6,24.8-24.8c12.4-11.7,21.5-17.5,27.3-17.5
			c4.4,0,6.5,3.2,6.5,9.5c0,6.5-4.5,12.8-13.5,19c-8.3,5.8-15.8,8.6-22.5,8.3c3.5,16,10.2,24,20,24c9.7,0,20.3-7.6,31.8-22.8
			c1-1.5,2-2.3,3-2.3c0.8,0,1.2,0.4,1.2,1.3c0,0.7-0.3,1.5-1,2.5c-4,5.8-9.7,12-17,18.5c-8.9,8-15.8,12-20.8,12
			c-6.2,0-12.4-4.3-18.5-12.8c-5.7-7.7-8.9-14.9-9.8-21.5c-4,4.7-7.9,9.3-11.8,13.8c-3.8,5-6.3,10.8-7.5,17.3
			c-1.8,0.8-3.8,1.2-5.8,1.2c-3.7,0-5.5-0.8-5.5-2.5c0-3.8,3.5-13.8,10.5-29.8c10.3-23.7,22.1-46,35.3-67.1
			c20.4-32.6,37-48.8,49.8-48.8C599.8,46.8,603.5,50.2,603.5,57.1z M597.7,60.6c0-3.5-1.4-5.2-4.2-5.2c-4.3,0-11,3.8-20,11.5
			c-15.9,13.2-29.3,33.2-40.3,60.1c-2.5,6.2-3.8,9.8-3.8,10.8c11.9-7.3,25.5-19,40.8-35C588.6,83.9,597.7,69.9,597.7,60.6z
			 M563.4,140.1c0-3.3-1.1-5-3.3-5c-3.3,0-12.4,7.7-27.3,23c0.7,1.3,2.2,2,4.5,2c5,0,10.6-2.2,16.7-6.6
			C560.4,149.3,563.4,144.8,563.4,140.1z M621,119.7c0,2-0.8,3.8-2.4,5.4c-1.6,1.6-3.5,2.4-5.6,2.4c-4,0-6-2-6-6
			c0-2,0.8-3.8,2.4-5.4c1.6-1.6,3.5-2.4,5.6-2.4C619,113.6,621,115.7,621,119.7z M637.8,165c0,1.2-0.6,2.5-1.7,4
			c-15.2,20.2-28.1,30.3-38.8,30.3c-9.2,0-13.8-4.9-13.8-14.8c0-5,1.7-11.9,5-20.5c3-8,6.2-14.3,9.5-18.8c1-1.5,2.2-2.2,3.5-2.2
			c1.5,0,2.9,0.7,4.1,2c1.2,1.4,1.9,2.8,1.9,4.2c0,0.9-0.3,1.8-1,2.8c-8.4,13-12.5,23.9-12.5,32.6c0,6,2.2,9,6.5,9
			c4.9,0,10.3-2.6,16.3-8c4-3.5,8.4-8.3,13.3-14.5c4.2-5.4,6.3-8,6.5-8C637.4,162.9,637.8,163.6,637.8,165z M707.7,163.9
			c0,1.2-0.5,2.6-1.5,4.2C694.8,186.7,683,196,670.8,196c-9.5,0-14.3-5.9-14.3-17.8c0-10.6,2.4-19.9,7.3-28
			c-11.7,10.5-23.6,25-35.8,43.6c-1,1.5-1.7,2.2-2.2,2.2c-1.5,0-2.3-1.5-2.3-4.6c0-0.8,0.2-1.5,0.5-2c3.5-8.6,7.2-20.8,11-36.6
			c0.5-2.7,1.4-6.6,2.5-11.9c0.5-1.2,1.7-2.3,3.5-3.5c1.8-1.2,3.5-1.8,5-1.8c1.2,0,1.7,0.5,1.7,1.5c0,1.7-3.9,14.6-11.8,38.5
			c2-2.7,8.2-9.8,18.8-21.3c3.5-4,8.7-9.7,15.5-17c1.3-1.2,2.6-1.8,4-1.8c3.8,0,5.8,1.9,5.8,5.8c0,0.8-0.4,1.8-1,3
			c-9.3,15.4-14,27.5-14,36.6c0,6.3,3,9.5,9,9.5c4.7,0,9.7-2.4,15-7.3c3.5-3,7.4-7.5,11.8-13.5c3.5-4.8,5.5-7.3,6-7.3
			C707.4,162.5,707.7,162.9,707.7,163.9z M779,165.7c0,0.9-0.5,2-1.5,3.6c-7.3,11.9-14.3,19.6-20.8,23c-3,1.5-6,2.3-9,2.3
			c-10.2,0-15.3-7.2-15.3-21.7c0-2.4,0.2-4.9,0.5-7.6c-11.2,19.9-21.1,29.8-29.8,29.8c-5.2,0-7.8-2.8-7.8-8.5
			c0-8.7,4.2-19.1,12.5-31.4c8.3-12.3,16.4-19.8,24.3-22.4c2.8-1.2,5.6-1.8,8.2-1.8c6,0,10.3,2.1,13,6.3c0.5,0.8,0.7,1.4,0.7,1.7
			c0,0.2-0.6,0.4-1.7,0.8s-2,0.9-2.5,1.7c-4,6.5-6,16.3-6,29.3c0,12,2.6,18,7.8,18c3.7,0,8.9-4.1,15.6-12.1
			c6.8-8.1,10.4-12.1,10.9-12.1C778.8,164.5,779,164.9,779,165.7z M742.2,139.4c-0.7-0.2-1.4-0.3-2.3-0.3c-6.7,0-13.6,4.3-20.8,12.8
			c-10.2,12.4-15.3,22.5-15.3,30.3c0,3.5,1.2,5.3,3.5,5.3c3.7,0,8.4-3.8,14.3-11.5C729.8,165.6,736.7,153.5,742.2,139.4z"/>
		<g>
			<path class="st2" d="M352.9,76.3c-2-22.3,2.2-44.8,12.8-67.5"/>
			<path class="st3" d="M384.6,38.4c-1.4,22.7-13.1,37-35.3,42.9c16.5-6.9,26.5-17,29.9-30.5c4.6-15.5,0.5-30.2-12.3-44.3
				c-16.3,7.8-25.4,19.9-27.4,36.2c-2.2,13.6,3,26.5,15.8,38.5c-11.4-6.5-17.8-18-19.3-34.4c0.1-12.2,4.4-22.8,13-31.7
				c4.8-4.5,11.1-8.3,18.7-11.4C378.6,13.1,384.2,24.6,384.6,38.4z"/>
			<path class="st4" d="M258.3,101.1c23-9,42.4-10.8,58.1-5.3c13.6,4.4,24.9,10.1,34.6,17.4c22,9.1,40.9,10,56.6,2.8
				c11.2-4.4,21.1-12.8,29.4-25.4c7-10.2,10-23,9-38.3c-23.4-10.6-43.6-11.3-60.7-2.1c-23.8,11.8-35.9,31.9-36.2,60.3
				c0.1,3.5,0.4,6.6,0.9,9.2c0.9-18,4.7-32.1,11.6-42.3c20.6-28.5,47.6-36.3,81.1-23.3c0.4,21.7-9.3,39.8-29.2,54.1
				c-18.2,11.1-39.2,12.2-62.9,3.2c-13.4-11.3-30.2-19.5-52.8-20.6C282.4,90.9,269.2,94.2,258.3,101.1z"/>
			<path class="st4" d="M401.4,72.7c-17,10.3-33.3,22.8-48.9,37.4c13.8-15,27-26.2,39.4-33.7c16.6-11.1,32.2-18.5,46.8-22
				C426.8,57.6,414.4,63.7,401.4,72.7z"/>
		</g>
	</g>
</g>
</svg>
