<svg id="Capa_1" data-name="Capa 1" xmlns="http://www.w3.org/2000/svg" viewBox="0 0 512 421.53"><defs><style>.cls-1{fill:#fff;}</style></defs><title>phone</title><path class="cls-1" d="M258.81,122.23c86.27,0.85,140.32-4.52,147.62,91.1h105.2c0-148.13-129.19-168.1-255.56-168.1S0.52,65.2.52,213.33H104.9C113,115.89,173.26,121.39,258.81,122.23Z" transform="translate(0 -45.23)"/><path class="cls-1" d="M52.69,261c25.62,0,46.94,1.53,51.68-23.67a64.32,64.32,0,0,0,1-11.8H0C0,263,23.59,261,52.69,261Z" transform="translate(0 -45.23)"/><path class="cls-1" d="M407.11,225.48h-1a56.29,56.29,0,0,0,1.12,11.8c5,23.24,26.29,21.8,51.82,21.8,29.24,0,52.94,1.92,52.94-33.6H407.11Z" transform="translate(0 -45.23)"/><path class="cls-1" d="M355.71,199.95v-14.9c0-6.66-7.68-7.08-17.16-7.08H323.07c-9.47,0-17.15.42-17.15,7.08v22.8H196.37v-22.8c0-6.66-7.68-7.08-17.15-7.08h-15.5c-9.47,0-17.15.42-17.15,7.08V213C121.62,238.89,40,349.28,37,362.64l0,89.18A15,15,0,0,0,52,466.76H450.32a15,15,0,0,0,14.94-14.94V362.19c-2.94-13-84.58-123.32-109.54-149.25v-13ZM191,374.64a14.52,14.52,0,1,1,14.52-14.52A14.52,14.52,0,0,1,191,374.64Zm0-49.79a14.52,14.52,0,1,1,14.52-14.52A14.52,14.52,0,0,1,191,324.85Zm0-49.78a14.52,14.52,0,1,1,14.52-14.52A14.52,14.52,0,0,1,191,275.07Zm59.75,99.58a14.52,14.52,0,1,1,14.52-14.52A14.52,14.52,0,0,1,250.73,374.64Zm0-49.79a14.52,14.52,0,1,1,14.52-14.52A14.52,14.52,0,0,1,250.73,324.85Zm0-49.78a14.52,14.52,0,1,1,14.52-14.52A14.52,14.52,0,0,1,250.73,275.07Zm59.75,99.58A14.52,14.52,0,1,1,325,360.12,14.51,14.51,0,0,1,310.48,374.64Zm0-49.79A14.52,14.52,0,1,1,325,310.33,14.51,14.51,0,0,1,310.48,324.85Zm0-49.78A14.52,14.52,0,1,1,325,260.55,14.51,14.51,0,0,1,310.48,275.07Z" transform="translate(0 -45.23)"/></svg>